<svg xmlns="http://www.w3.org/2000/svg" version="1.1" xmlns:xlink="http://www.w3.org/1999/xlink" xmlns:svgjs="http://svgjs.dev/svgjs" width="1500" height="1500" viewBox="0 0 1500 1500"><rect width="1500" height="1500" fill="#ececea"></rect><g transform="matrix(0.6666666666666666,0,0,0.6666666666666666,249.81854324552233,240.41295546558706)"><svg viewBox="0 0 242 247" data-background-color="#ececea" preserveAspectRatio="xMidYMid meet" height="1530" width="1500" xmlns="http://www.w3.org/2000/svg" xmlns:xlink="http://www.w3.org/1999/xlink"><g id="tight-bounds" transform="matrix(1,0,0,1,0.04391253458359756,-0.09999999999999432)"><svg viewBox="0 0 241.9121749308328 247.2" height="247.2" width="241.9121749308328"><g><svg></svg></g><g><svg viewBox="0 0 241.9121749308328 247.2" height="247.2" width="241.9121749308328"><g transform="matrix(1,0,0,1,0,47.215199999999996)"><svg viewBox="0 0 241.9121749308328 152.7696" height="152.7696" width="241.9121749308328"><g><svg viewBox="0 0 241.9121749308328 152.7696" height="152.7696" width="241.9121749308328"><g><svg viewBox="0 0 244.43135999999998 154.36048683921211" height="152.7696" width="241.9121749308328"><g><svg viewBox="0 0 244.43135999999998 154.36048683921211" height="154.36048683921211" width="244.43135999999998"><g id="textblocktransform"><svg viewBox="0 0 244.43135999999998 154.36048683921211" height="154.36048683921211" width="244.43135999999998" id="textblock"><g><svg viewBox="0 0 244.43135999999998 83.25467070347284" height="83.25467070347284" width="244.43135999999998"><g transform="matrix(1,0,0,1,0,0)"><svg width="244.43135999999998" viewBox="4.69 -36.74 109.66 37.35" height="83.25467070347284" data-palette-color="#009b7d"><path d="M8.69 0L4.69 0 4.69-33.84 8.69-33.84 8.69-16.58 8.86-16.58 23.24-33.84 27.76-33.84 17.14-20.97 29.42 0 24.93 0 14.67-17.87 8.69-10.82 8.69 0ZM39.69 0.61L39.69 0.61Q36.57 0.61 34.47-1.21 32.37-3.03 32.37-6.42L32.37-6.42Q32.37-10.52 36.09-12.72 39.82-14.92 47.85-15.82L47.85-15.82Q47.85-17.48 47.4-18.97 46.95-20.46 45.81-21.41 44.68-22.36 42.58-22.36L42.58-22.36Q40.35-22.36 38.41-21.51 36.47-20.65 35.01-19.73L35.01-19.73 33.47-22.36Q35.13-23.51 37.66-24.56 40.18-25.61 43.21-25.61L43.21-25.61Q47.78-25.61 49.79-22.8 51.8-20 51.8-15.41L51.8-15.41 51.8 0 48.51 0 48.19-3.03 48.04-3.03Q46.24-1.54 44.13-0.46 42.01 0.61 39.69 0.61ZM40.77-2.56L40.77-2.56Q42.65-2.56 44.3-3.44 45.94-4.32 47.85-5.96L47.85-5.96 47.85-13.18Q43.53-12.65 40.99-11.77 38.45-10.89 37.35-9.64 36.25-8.4 36.25-6.74L36.25-6.74Q36.25-4.52 37.57-3.54 38.89-2.56 40.77-2.56ZM68.28 0.61L68.28 0.61Q63.62 0.61 60.8-2.8 57.98-6.2 57.98-12.45L57.98-12.45Q57.98-16.5 59.5-19.46 61.03-22.41 63.51-24.01 65.99-25.61 68.84-25.61L68.84-25.61Q71.02-25.61 72.64-24.84 74.26-24.07 75.9-22.71L75.9-22.71 75.75-27 75.75-36.74 79.73-36.74 79.73 0 76.44 0 76.12-2.98 75.97-2.98Q74.48-1.51 72.53-0.45 70.58 0.61 68.28 0.61ZM69.16-2.71L69.16-2.71Q70.94-2.71 72.53-3.58 74.12-4.44 75.75-6.23L75.75-6.23 75.75-19.58Q74.09-21.04 72.58-21.68 71.06-22.31 69.48-22.31L69.48-22.31Q67.4-22.31 65.73-21.07 64.06-19.82 63.06-17.6 62.06-15.38 62.06-12.45L62.06-12.45Q62.06-7.89 63.91-5.3 65.77-2.71 69.16-2.71ZM92.23 0L88.27 0 88.27-24.98 92.23-24.98 92.23 0ZM90.32-30.25L90.32-30.25Q89.13-30.25 88.4-30.99 87.66-31.74 87.66-32.98L87.66-32.98Q87.66-34.13 88.4-34.86 89.13-35.6 90.32-35.6L90.32-35.6Q91.52-35.6 92.25-34.86 92.99-34.13 92.99-32.98L92.99-32.98Q92.99-31.74 92.25-30.99 91.52-30.25 90.32-30.25ZM104.8 0L100.84 0 100.84-24.98 104.14-24.98 104.51-20.46 104.6-20.46Q105.92-22.8 107.75-24.21 109.58-25.61 111.71-25.61L111.71-25.61Q113.32-25.61 114.35-25.1L114.35-25.1 113.47-21.73Q112.93-21.9 112.45-21.97 111.98-22.05 111.2-22.05L111.2-22.05Q109.61-22.05 107.85-20.74 106.09-19.43 104.8-16.16L104.8-16.16 104.8 0Z" opacity="1" transform="matrix(1,0,0,1,0,0)" fill="#009b7d" class="wordmark-text-0" data-fill-palette-color="primary" id="text-0"></path></svg></g></svg></g><g transform="matrix(1,0,0,1,0,102.9091003444659)"><svg viewBox="0 0 244.43135999999998 51.45138649474622" height="51.45138649474622" width="244.43135999999998"><g transform="matrix(1,0,0,1,0,0)"><svg width="244.43135999999998" viewBox="1.3499999999999999 -40.8 255.59 53.800000000000004" height="51.45138649474622" data-palette-color="#009b7d"><path d="M38.6-8.7L38.6-17.85Q38.6-24.8 34.15-24.8L34.15-24.8Q30.35-24.8 26.95-19.55L26.95-19.55 26.95-2.55 31-1.8Q31.2-1 31 0.2L31 0.2Q27.85 0.05 24.6 0.05L24.6 0.05Q22.3 0.05 18.1 0.15L18.1 0.15Q17.8-0.8 18.1-1.8L18.1-1.8 22.05-2.35Q22.25-5.1 22.25-8.7L22.25-8.7 22.25-17.85Q22.25-24.8 17.8-24.8L17.8-24.8Q15.55-24.8 13.85-23.43 12.15-22.05 10.35-19.15L10.35-19.15 10.35-2.55 14.4-1.8Q14.6-1 14.4 0.2L14.4 0.2Q11.25 0.05 8 0.05L8 0.05Q5.7 0.05 1.5 0.15L1.5 0.15Q1.2-0.8 1.5-1.8L1.5-1.8 5.45-2.35Q5.65-5.1 5.65-8.7L5.65-8.7 5.65-22.4Q5.65-23.4 5.5-24.25L5.5-24.25 1.55-24.75Q1.35-25.5 1.55-26.65L1.55-26.65Q4.9-26.9 10.1-27.7L10.1-27.7Q10.55-27.2 10.6-26.7L10.6-26.7Q10.35-25.4 10.35-22.25L10.35-22.25Q14.3-27.7 19.25-27.7L19.25-27.7Q21.85-27.7 24-26.38 26.15-25.05 26.75-22.3L26.75-22.3Q30.75-27.7 35.6-27.7L35.6-27.7Q38.65-27.7 40.98-25.9 43.3-24.1 43.3-20.35L43.3-20.35 43.3-2.55 47.35-1.8Q47.55-1 47.35 0.2L47.35 0.2Q44.2 0.05 40.95 0.05L40.95 0.05Q38.65 0.05 34.45 0.15L34.45 0.15Q34.15-0.8 34.45-1.8L34.45-1.8 38.4-2.35Q38.6-5.1 38.6-8.7L38.6-8.7ZM58.04 7.4L58.04 7.4 61.24-0.15 51.54-24.05 47.64-24.85Q47.39-25.85 47.64-26.85L47.64-26.85Q50.39-26.65 54.34-26.65L54.34-26.65Q57.89-26.65 61.09-26.8L61.09-26.8Q61.39-25.8 61.09-24.85L61.09-24.85 56.79-24.15 61.54-12.9Q62.54-10.45 63.64-6.05L63.64-6.05 63.74-6.05Q64.59-9.05 66.09-12.65L66.09-12.65 70.44-24.3 66.54-24.85Q66.34-25.65 66.54-26.85L66.54-26.85Q69.29-26.65 71.89-26.65L71.89-26.65Q74.09-26.65 77.34-26.8L77.34-26.8Q77.64-25.8 77.34-24.85L77.34-24.85 73.39-24.3 60.19 8Q59.14 10.5 57.84 11.75 56.54 13 54.39 13L54.39 13Q52.69 13 51.77 12.58 50.84 12.15 49.89 10.95L49.89 10.95Q50.19 8.2 52.74 6.55L52.74 6.55Q54.79 8.85 56.24 8.85L56.24 8.85Q57.49 8.85 58.04 7.4ZM115.73-24.3L105.58 2.2 104.53 2.2 97.93-16.15 91.08 2.2 90.03 2.2 80.43-24.25 77.28-24.85Q77.08-25.65 77.28-26.85L77.28-26.85Q80.03-26.65 83.23-26.65L83.23-26.65Q86.08-26.65 89.28-26.8L89.28-26.8Q89.58-25.8 89.28-24.85L89.28-24.85 85.43-24.25 89.43-12.9Q91.18-7.9 91.73-5.65L91.73-5.65 91.83-5.65Q93.03-9.95 94.18-12.65L94.18-12.65 96.73-19.5 95.03-24.25 91.88-24.85Q91.68-25.65 91.88-26.85L91.88-26.85Q94.63-26.65 97.83-26.65L97.83-26.65Q100.68-26.65 103.88-26.8L103.88-26.8Q104.18-25.8 103.88-24.85L103.88-24.85 100.03-24.25 103.88-12.9Q105.63-7.9 106.18-5.65L106.18-5.65 106.28-5.65Q107.48-9.95 108.63-12.65L108.63-12.65 112.98-24.45 109.08-24.85Q108.88-25.65 109.08-26.85L109.08-26.85Q111.83-26.65 114.23-26.65L114.23-26.65Q116.28-26.65 119.48-26.8L119.48-26.8Q119.78-25.8 119.48-24.85L119.48-24.85 115.73-24.3ZM141.98-14.1L141.98-14.1 126.28-14.1Q125.83-1.35 133.93-1.35L133.93-1.35Q137.38-1.35 140.98-4.4L140.98-4.4Q141.73-3.95 142.13-2.85L142.13-2.85Q138.68 1 133.38 1L133.38 1Q121.18 1 121.18-13.35L121.18-13.35Q121.18-20.15 124.78-23.93 128.38-27.7 133.18-27.7L133.18-27.7Q138.43-27.7 140.73-24.05 143.03-20.4 143.03-14.55L143.03-14.55Q142.53-14.15 141.98-14.1ZM133.08-25.7L133.08-25.7Q130.48-25.7 128.65-23 126.83-20.3 126.43-16.1L126.43-16.1 132.63-16.1Q136.33-16.1 137.93-16.55L137.93-16.55Q137.93-20.65 136.68-23.18 135.43-25.7 133.08-25.7ZM154.02-31.7L154.02-23.55Q158.17-27.7 163.07-27.7L163.07-27.7Q167.92-27.7 170.64-24.05 173.37-20.4 173.37-14.2L173.37-14.2Q173.37-7.15 169.57-3.08 165.77 1 160.12 1L160.12 1Q155.22 1 152.42-2.5L152.42-2.5 151.37 0.9Q150.42 1.05 149.77 0.9L149.77 0.9 149.27-4.6 149.27-37.35 145.17-37.85Q144.97-38.6 145.17-39.75L145.17-39.75Q148.62-40 153.77-40.8L153.77-40.8Q154.22-40.3 154.27-39.8L154.27-39.8Q154.02-38.5 154.02-31.7L154.02-31.7ZM161.22-1.75L161.22-1.75Q164.32-1.75 166.34-4.63 168.37-7.5 168.37-12.75L168.37-12.75Q168.37-13.8 168.32-14.35L168.32-14.35Q168.32-19.3 166.34-22 164.37-24.7 161.37-24.7L161.37-24.7Q159.62-24.7 157.57-23.58 155.52-22.45 154.02-20.5L154.02-20.5 154.02-5.2Q155.72-3.25 157.27-2.5 158.82-1.75 161.22-1.75ZM186.91-1.2L186.91-1.2Q189.61-1.2 190.91-2.45 192.21-3.7 192.21-5.35L192.21-5.35Q192.21-6.3 191.91-7.1 191.61-7.9 190.94-8.65 190.26-9.4 189.16-10.13 188.06-10.85 186.41-11.7L186.41-11.7Q184.36-12.75 182.89-13.7 181.41-14.65 180.46-15.7 179.51-16.75 179.04-17.95 178.56-19.15 178.56-20.65L178.56-20.65Q178.56-22.45 179.21-23.78 179.86-25.1 181.04-25.98 182.21-26.85 183.81-27.28 185.41-27.7 187.36-27.7L187.36-27.7Q191.26-27.7 194.96-25.8L194.96-25.8 194.96-19.4 192.61-19.4 191.51-24.8Q189.31-25.85 186.86-25.85L186.86-25.85Q182.76-25.85 182.76-22.5L182.76-22.5Q182.76-20.7 184.11-19.2 185.46-17.7 188.46-16.2L188.46-16.2Q190.51-15.15 192.06-14.2 193.61-13.25 194.64-12.2 195.66-11.15 196.19-9.93 196.71-8.7 196.71-7.15L196.71-7.15Q196.71-5.4 195.96-3.9 195.21-2.4 193.86-1.33 192.51-0.25 190.61 0.38 188.71 1 186.41 1L186.41 1Q181.96 1 178.06-0.9L178.06-0.9 178.06-7.3 180.41-7.3 181.51-2.35Q184.06-1.2 186.91-1.2ZM209.45-18.6L209.45-18.6 209.45-2.55 213.5-1.8Q213.55-1.55 213.58-1.35 213.6-1.15 213.6-0.9L213.6-0.9Q213.6-0.65 213.58-0.38 213.55-0.1 213.5 0.2L213.5 0.2Q210.35 0.05 207.05 0.05L207.05 0.05Q205.9 0.05 204.28 0.08 202.65 0.1 200.55 0.15L200.55 0.15Q200.4-0.3 200.4-0.8L200.4-0.8Q200.4-1.25 200.55-1.8L200.55-1.8 204.5-2.35Q204.6-3.75 204.65-5.33 204.7-6.9 204.7-8.7L204.7-8.7 204.7-19.35Q204.7-22.65 204.55-24.25L204.55-24.25 200.6-24.75Q200.5-25 200.5-25.6L200.5-25.6Q200.5-25.85 200.5-26.1 200.5-26.35 200.6-26.65L200.6-26.65Q204-26.85 209.2-27.7L209.2-27.7Q209.65-27.2 209.7-26.7L209.7-26.7Q209.45-25.3 209.45-18.6ZM202.15-36.45L202.15-36.45Q202.05-36.7 202.05-36.98 202.05-37.25 202.05-37.5L202.05-37.5Q202.05-38.85 203.18-39.68 204.3-40.5 205.95-40.5L205.95-40.5Q207.5-40.5 208.48-39.58 209.45-38.65 209.45-37.05L209.45-37.05Q209.45-35.75 208.33-34.95 207.2-34.15 205.45-34.15L205.45-34.15Q204.25-34.15 203.33-34.75 202.4-35.35 202.15-36.45ZM224.3-32.7L224.3-32.7 224.3-25.55 231.35-25.55Q231.45-24.95 231.45-24.65L231.45-24.65Q231.45-24.2 231.35-23.6L231.35-23.6 224.3-22.55 224.3-8.8Q224.3-5.1 224.97-3.58 225.65-2.05 227.1-2.05L227.1-2.05Q228.4-2.05 231.15-3.1L231.15-3.1Q231.65-2.65 231.85-1.4L231.85-1.4Q230.35-0.5 229.57-0.08 228.8 0.35 227.62 0.68 226.45 1 225.15 1L225.15 1Q222.65 1 221.07-0.93 219.5-2.85 219.5-6.8L219.5-6.8 219.5-23.15 216-23.6Q215.9-24.1 215.9-24.45L215.9-24.45Q215.9-24.85 216-25.55L216-25.55Q217.4-25.8 218.42-26.43 219.45-27.05 220.15-28.18 220.85-29.3 221.22-30.18 221.6-31.05 222.15-32.7L222.15-32.7Q222.6-32.85 223.25-32.85L223.25-32.85Q223.85-32.85 224.3-32.7ZM255.89-14.1L255.89-14.1 240.19-14.1Q239.74-1.35 247.84-1.35L247.84-1.35Q251.29-1.35 254.89-4.4L254.89-4.4Q255.64-3.95 256.04-2.85L256.04-2.85Q252.59 1 247.29 1L247.29 1Q235.09 1 235.09-13.35L235.09-13.35Q235.09-20.15 238.69-23.93 242.29-27.7 247.09-27.7L247.09-27.7Q252.34-27.7 254.64-24.05 256.94-20.4 256.94-14.55L256.94-14.55Q256.44-14.15 255.89-14.1ZM246.99-25.7L246.99-25.7Q244.39-25.7 242.56-23 240.74-20.3 240.34-16.1L240.34-16.1 246.54-16.1Q250.24-16.1 251.84-16.55L251.84-16.55Q251.84-20.65 250.59-23.18 249.34-25.7 246.99-25.7Z" opacity="1" transform="matrix(1,0,0,1,0,0)" fill="#009b7d" class="slogan-text-1" data-fill-palette-color="secondary" id="text-1"></path></svg></g></svg></g></svg></g></svg></g><g></g></svg></g></svg></g></svg></g><path d="M0 41.215L0 1 241.912 1 241.912 41.215 234.482 41.215 234.482 8.431 7.431 8.431 7.431 41.215 0 41.215M0 205.985L0 246.2 241.912 246.2 241.912 205.985 234.482 205.985 234.482 238.769 7.431 238.769 7.431 205.985 0 205.985" fill="#009b7d" stroke="transparent" data-fill-palette-color="tertiary"></path></svg></g><defs></defs></svg><rect width="241.9121749308328" height="247.2" fill="none" stroke="none" visibility="hidden"></rect></g></svg></g></svg>